<?xml version="1.0" encoding="utf-8"?>
<!-- Generator: Adobe Illustrator 26.0.0, SVG Export Plug-In . SVG Version: 6.00 Build 0)  -->
<svg version="1.1" id="Capa_1" xmlns="http://www.w3.org/2000/svg" xmlns:xlink="http://www.w3.org/1999/xlink" x="0px" y="0px"
	 viewBox="0 0 233.2 85" style="enable-background:new 0 0 233.2 85;" xml:space="preserve">
<style type="text/css">
	.st0{opacity:0.6;}
	.st1{fill:none;}
	.st2{fill:#FFFFFF;}
</style>
<g class="st0">
	<rect x="-169.6" y="-55.9" class="st1" width="179.7" height="194.3"/>
</g>
<rect x="-168.1" y="-54.5" class="st1" width="178.2" height="191.4"/>
<path class="st2" d="M2,12.3L2,12.3c0-4.2,3.1-7.9,7.6-7.9c2.6,0,4.1,0.7,5.6,2l-1.1,1.3C12.9,6.7,11.6,6,9.5,6
	c-3.3,0-5.8,2.8-5.8,6.2l0,0c0,3.6,2.3,6.3,6,6.3c1.7,0,3.3-0.7,4.4-1.5v-3.8H9.5v-1.5h6.3v6C14.4,19,12.3,20,9.7,20
	C4.9,20.1,2,16.6,2,12.3z"/>
<path class="st2" d="M18.6,14.3L18.6,14.3c0-3.2,2.5-5.9,5.8-5.9c3.4,0,5.8,2.6,5.8,5.8l0,0c0,3.2-2.5,5.8-5.9,5.8
	C21,20.1,18.6,17.4,18.6,14.3z M28.5,14.3L28.5,14.3c0-2.4-1.8-4.4-4.1-4.4c-2.4,0-4.1,2-4.1,4.3l0,0c0,2.4,1.8,4.3,4.1,4.3
	S28.5,16.6,28.5,14.3L28.5,14.3z"/>
<path class="st2" d="M34.9,17.7v2.1h-1.7V4h1.7v6.9c0.9-1.3,2.2-2.5,4.3-2.5c2.7,0,5.3,2.1,5.3,5.8l0,0c0,3.7-2.6,5.8-5.3,5.8
	C37.1,20.1,35.8,18.9,34.9,17.7z M42.8,14.3L42.8,14.3c0-2.7-1.8-4.4-3.9-4.4c-2.1,0-4,1.8-4,4.3l0,0c0,2.6,2,4.3,4,4.3
	C41,18.6,42.8,17,42.8,14.3z"/>
<path class="st2" d="M47.6,4.4h1.9v1.8h-1.9V4.4z M47.7,8.6h1.7v11.2h-1.7V8.6z"/>
<path class="st2" d="M58.2,18.6c1.5,0,2.6-0.6,3.5-1.6l1,0.9c-1.1,1.3-2.5,2.1-4.6,2.1c-3.1,0-5.6-2.4-5.6-5.8
	c0-3.2,2.3-5.8,5.4-5.8c3.3,0,5.2,2.6,5.2,5.9c0,0.1,0,0.3,0,0.6h-8.9C54.5,17.3,56.3,18.6,58.2,18.6L58.2,18.6z M61.5,13.6
	c-0.2-2-1.4-3.8-3.6-3.8c-1.9,0-3.4,1.6-3.6,3.8H61.5z"/>
<path class="st2" d="M66.1,8.6h1.7v2.9c0.8-1.9,2.4-3.2,4.6-3.1v1.8h-0.2c-2.4,0-4.4,1.8-4.4,5.1v4.5h-1.7L66.1,8.6L66.1,8.6z"/>
<path class="st2" d="M74.8,8.6h1.7v1.9c0.7-1.2,1.9-2.2,3.8-2.2c2.7,0,4.3,1.8,4.3,4.5v6.9h-1.7v-6.5c0-2.1-1.1-3.4-3.1-3.4
	s-3.3,1.4-3.3,3.5v6.4h-1.7V8.6z"/>
<path class="st2" d="M87.5,14.3L87.5,14.3c0-3.2,2.5-5.9,5.8-5.9c3.4,0,5.8,2.6,5.8,5.8l0,0c0,3.2-2.5,5.8-5.9,5.8
	S87.5,17.4,87.5,14.3z M97.4,14.3L97.4,14.3c0-2.4-1.8-4.4-4.1-4.4s-4.1,2-4.1,4.3l0,0c0,2.4,1.8,4.3,4.1,4.3
	C95.7,18.6,97.4,16.6,97.4,14.3L97.4,14.3z"/>
<path class="st2" d="M2.6,25.5h1.7l5.5,8.3l5.5-8.3H17v15.1h-1.7V28.4l-5.5,8.1H9.7l-5.5-8.1v12.2H2.5L2.6,25.5L2.6,25.5z"/>
<path class="st2" d="M20.9,36.4v-6.9h1.7V36c0,2.1,1.1,3.4,3.1,3.4S29,38,29,35.9v-6.4h1.6v11.2H29v-1.9C28.2,40,27.1,41,25.2,41
	C22.5,40.9,20.9,39.1,20.9,36.4L20.9,36.4z"/>
<path class="st2" d="M34.4,29.5h1.7v1.9c0.7-1.2,1.9-2.2,3.8-2.2c2.7,0,4.3,1.8,4.3,4.5v6.9h-1.7v-6.5c0-2.1-1.1-3.4-3.1-3.4
	s-3.3,1.4-3.3,3.5v6.4h-1.7V29.5z"/>
<path class="st2" d="M47.8,25.2h1.9V27h-1.9V25.2z M47.9,29.5h1.7v11.2h-1.7V29.5z"/>
<path class="st2" d="M52.7,35.1L52.7,35.1c0-3.2,2.5-5.9,5.7-5.9c2.1,0,3.4,0.9,4.5,2l-1.1,1.2c-0.9-0.9-1.9-1.7-3.4-1.7
	c-2.3,0-4,1.9-4,4.3l0,0c0,2.4,1.8,4.3,4.1,4.3c1.4,0,2.5-0.7,3.4-1.7l1.1,1c-1.1,1.3-2.5,2.2-4.6,2.2
	C55.2,40.9,52.7,38.3,52.7,35.1L52.7,35.1z"/>
<path class="st2" d="M65.8,25.2h1.9V27h-1.9V25.2z M65.9,29.5h1.7v11.2h-1.7V29.5z"/>
<path class="st2" d="M71.4,29.5h1.7v2.2c0.9-1.3,2.2-2.5,4.3-2.5c2.7,0,5.3,2.1,5.3,5.8l0,0c0,3.7-2.6,5.8-5.3,5.8
	c-2.1,0-3.4-1.1-4.3-2.4V44h-1.7V29.5z M81,35.1L81,35.1c0-2.7-1.8-4.4-3.9-4.4s-4,1.8-4,4.3l0,0c0,2.6,2,4.3,4,4.3S81,37.8,81,35.1
	z"/>
<path class="st2" d="M84.9,37.4L84.9,37.4c0-2.4,1.9-3.7,4.8-3.7c1.4,0,2.4,0.2,3.4,0.5v-0.4c0-2-1.2-3-3.3-3
	c-1.3,0-2.4,0.3-3.4,0.8l-0.5-1.4c1.2-0.6,2.4-0.9,4.1-0.9s2.8,0.4,3.6,1.2s1.2,1.9,1.2,3.3v6.8h-1.6v-1.7c-0.8,1-2.1,1.9-4,1.9
	C87,40.9,85,39.7,84.9,37.4L84.9,37.4z M93.2,36.6v-1c-0.8-0.2-1.9-0.5-3.3-0.5c-2.1,0-3.3,0.9-3.3,2.2l0,0c0,1.4,1.3,2.2,2.8,2.2
	C91.5,39.6,93.2,38.3,93.2,36.6L93.2,36.6z"/>
<path class="st2" d="M98.5,24.9h1.7v15.8h-1.7V24.9z"/>
<path class="st2" d="M109.8,35.1L109.8,35.1c0-3.7,2.7-5.9,5.3-5.9c2.1,0,3.4,1.1,4.3,2.4v-6.7h1.7v15.8h-1.7v-2.2
	c-0.9,1.3-2.2,2.5-4.3,2.5C112.5,40.9,109.8,38.8,109.8,35.1L109.8,35.1z M119.5,35.1L119.5,35.1c0-2.6-2-4.4-4-4.4
	c-2.1,0-3.9,1.6-3.9,4.3l0,0c0,2.6,1.8,4.3,3.9,4.3C117.6,39.4,119.5,37.7,119.5,35.1z"/>
<path class="st2" d="M129.8,39.5c1.5,0,2.6-0.6,3.5-1.6l1,0.9c-1.1,1.3-2.5,2.1-4.6,2.1c-3.1,0-5.6-2.4-5.6-5.8
	c0-3.2,2.3-5.8,5.4-5.8c3.3,0,5.2,2.6,5.2,5.9c0,0.1,0,0.3,0,0.6h-8.9C126.1,38.1,127.8,39.5,129.8,39.5L129.8,39.5z M133,34.4
	c-0.2-2-1.4-3.8-3.6-3.8c-1.9,0-3.4,1.6-3.6,3.8H133z"/>
<path class="st2" d="M137.8,24.9h1.7v15.8h-1.7V24.9z"/>
<path class="st2" d="M149.4,33.1L149.4,33.1c0-4.3,3.2-7.9,7.7-7.9c2.7,0,4.4,1,5.9,2.4l-1.2,1.3c-1.3-1.2-2.7-2.1-4.8-2.1
	c-3.3,0-5.9,2.7-5.9,6.2l0,0c0,3.5,2.5,6.3,5.9,6.3c2.1,0,3.4-0.8,4.9-2.2l1.1,1.1c-1.6,1.6-3.3,2.7-6,2.7
	C152.6,40.9,149.4,37.5,149.4,33.1z"/>
<path class="st2" d="M164.9,37.4L164.9,37.4c0-2.4,1.9-3.7,4.8-3.7c1.4,0,2.4,0.2,3.4,0.5v-0.4c0-2-1.2-3-3.3-3
	c-1.3,0-2.4,0.3-3.4,0.8l-0.5-1.4c1.2-0.6,2.4-0.9,4.1-0.9c1.6,0,2.8,0.4,3.6,1.2c0.8,0.8,1.2,1.9,1.2,3.3v6.8h-1.6v-1.7
	c-0.8,1-2.1,1.9-4,1.9C167,40.9,164.9,39.7,164.9,37.4L164.9,37.4z M173.1,36.6v-1c-0.8-0.2-1.9-0.5-3.3-0.5c-2.1,0-3.3,0.9-3.3,2.2
	l0,0c0,1.4,1.3,2.2,2.8,2.2C171.4,39.6,173.1,38.3,173.1,36.6L173.1,36.6z"/>
<path class="st2" d="M178.3,29.5h1.7v1.9c0.7-1.2,1.9-2.2,3.8-2.2c2.7,0,4.3,1.8,4.3,4.5v6.9h-1.7v-6.5c0-2.1-1.1-3.4-3.1-3.4
	s-3.3,1.4-3.3,3.5v6.4h-1.7L178.3,29.5L178.3,29.5z"/>
<path class="st2" d="M192.1,37.7V31h-1.6v-1.5h1.6v-3.4h1.7v3.4h3.6V31h-3.6v6.5c0,1.4,0.8,1.9,1.9,1.9c0.6,0,1-0.1,1.6-0.4v1.4
	c-0.6,0.3-1.2,0.5-2,0.5C193.5,40.9,192.1,40,192.1,37.7z"/>
<path class="st2" d="M199.3,35.1L199.3,35.1c0-3.2,2.5-5.9,5.8-5.9c3.4,0,5.8,2.6,5.8,5.8l0,0c0,3.2-2.5,5.8-5.9,5.8
	S199.3,38.3,199.3,35.1z M209.2,35.1L209.2,35.1c0-2.4-1.8-4.4-4.1-4.4c-2.4,0-4.1,2-4.1,4.3l0,0c0,2.4,1.8,4.3,4.1,4.3
	C207.5,39.4,209.2,37.5,209.2,35.1L209.2,35.1z M206.5,24.7l1.7,0.8l-2.5,2.3h-1.3L206.5,24.7L206.5,24.7z"/>
<path class="st2" d="M213.9,29.5h1.7v1.9c0.7-1.2,1.9-2.2,3.8-2.2c2.7,0,4.3,1.8,4.3,4.5v6.9H222v-6.5c0-2.1-1.1-3.4-3.1-3.4
	s-3.3,1.4-3.3,3.5v6.4h-1.7L213.9,29.5L213.9,29.5z"/>
<path class="st2" d="M3.2,49.5h13.2c1.9,0,3.7,0.2,5.3,0.7s2.9,1.2,4,2.1s2,2,2.6,3.4c0.6,1.3,0.9,2.8,0.9,4.5v0.1
	c0,1.8-0.3,3.4-1,4.8c-0.7,1.4-1.6,2.6-2.7,3.5c-1.2,0.9-2.6,1.6-4.2,2.1c-1.6,0.5-3.4,0.7-5.3,0.7h-4.3v8.8H3.2V49.5L3.2,49.5z
	 M15.8,64.8c1.5,0,2.7-0.4,3.6-1.1c0.9-0.7,1.3-1.7,1.3-3v-0.1c0-1.3-0.4-2.3-1.3-3c-0.9-0.7-2.1-1-3.6-1h-4v8.1L15.8,64.8
	L15.8,64.8z"/>
<path class="st2" d="M46.6,80.9c-2.2,0-4.1-0.3-5.9-0.8c-1.8-0.6-3.3-1.4-4.5-2.6s-2.2-2.6-2.8-4.4c-0.7-1.8-1-3.9-1-6.3V49.5H41
	v17.1c0,2.2,0.5,3.9,1.5,4.9c1,1.1,2.4,1.6,4.1,1.6c1.7,0,3.2-0.5,4.2-1.5s1.5-2.6,1.5-4.8V49.5h8.6v17c0,2.5-0.4,4.6-1,6.4
	c-0.7,1.8-1.7,3.3-2.9,4.5s-2.8,2-4.5,2.6C50.8,80.6,48.8,80.9,46.6,80.9L46.6,80.9z"/>
<path class="st2" d="M75,68.8L63.3,49.5H73l6.3,11.2l6.4-11.2h9.5L83.5,68.6v11.6H75V68.8z"/>
<path class="st2" d="M108.5,49.3h8.2l13.1,31h-9.1l-2.2-5.5h-11.9l-2.2,5.5h-8.9L108.5,49.3L108.5,49.3z M116,68.1l-3.4-8.7
	l-3.5,8.7H116L116,68.1z"/>
<path class="st2" d="M132.8,49.5h8l12.7,16.3V49.5h8.4v30.8h-7.4l-13.2-16.9v16.9h-8.4L132.8,49.5L132.8,49.5z"/>
<path class="st2" d="M183,80.9c-2.4,0-4.6-0.4-6.7-1.2c-2-0.8-3.8-1.9-5.3-3.3s-2.7-3.1-3.5-5s-1.3-4.1-1.3-6.4v-0.1
	c0-2.2,0.4-4.3,1.3-6.3c0.8-1.9,2-3.7,3.4-5.1c1.5-1.4,3.2-2.6,5.2-3.4s4.2-1.2,6.6-1.2c2.7,0,5.1,0.4,7.1,1.2
	c2,0.8,3.8,1.9,5.4,3.3l-5,6.1c-1.1-0.9-2.2-1.6-3.4-2.1c-1.1-0.5-2.5-0.7-4-0.7c-1.1,0-2.1,0.2-3.1,0.7c-0.9,0.4-1.8,1-2.5,1.8
	c-0.7,0.7-1.3,1.6-1.7,2.7c-0.4,1-0.6,2.1-0.6,3.3v0.1c0,1.3,0.2,2.4,0.6,3.4s1,1.9,1.7,2.7s1.6,1.4,2.6,1.8s2.1,0.6,3.4,0.6
	c1.1,0,2-0.1,2.8-0.3c0.8-0.2,1.5-0.5,2.1-0.9v-3.7h-6v-6.2h14.1v13.8c-1.6,1.4-3.6,2.5-5.8,3.4C188.3,80.5,185.8,80.9,183,80.9z"/>
<path class="st2" d="M216.6,80.9c-2.4,0-4.6-0.4-6.6-1.3c-2-0.8-3.8-2-5.2-3.4c-1.5-1.4-2.6-3.1-3.4-5.1c-0.8-1.9-1.3-4-1.3-6.2
	v-0.1c0-2.2,0.4-4.3,1.3-6.2c0.8-1.9,2-3.7,3.5-5.1s3.3-2.6,5.3-3.4s4.2-1.3,6.6-1.3s4.6,0.4,6.6,1.3c2,0.8,3.8,2,5.2,3.4
	c1.5,1.4,2.6,3.1,3.4,5.1c0.8,1.9,1.3,4,1.3,6.2v0.1c0,2.2-0.4,4.3-1.3,6.2c-0.8,1.9-2,3.7-3.5,5.1s-3.3,2.6-5.3,3.4
	C221.2,80.5,219,80.9,216.6,80.9z M216.7,73.2c1.2,0,2.2-0.2,3.2-0.7c1-0.4,1.8-1,2.4-1.8c0.7-0.7,1.2-1.6,1.6-2.6s0.6-2,0.6-3.2
	v-0.1c0-1.1-0.2-2.2-0.6-3.2s-0.9-1.9-1.6-2.7c-0.7-0.8-1.5-1.4-2.5-1.8s-2-0.7-3.2-0.7s-2.2,0.2-3.2,0.7c-1,0.4-1.8,1-2.5,1.8
	c-0.7,0.7-1.2,1.6-1.6,2.6s-0.6,2-0.6,3.2v0.1c0,1.1,0.2,2.2,0.6,3.2s0.9,1.9,1.6,2.6c0.7,0.8,1.5,1.4,2.5,1.8
	C214.4,73,215.5,73.2,216.7,73.2L216.7,73.2z"/>
</svg>
